PathFileType	4	(X/Y/Z)	T1_P2_Vision_NoMovement_0_0-733.trc
DataRate	CameraRate	NumFrames	NumMarkers	Units	OrigDataRate	OrigDataStartFrame	OrigNumFrames
60	60	4	27	m	60	0	733
Frame#	Time	RHip			RKnee			RAnkle			RBigToe			RSmallToe			RHeel			LHip			LKnee			LAnkle			LBigToe			LSmallToe			LHeel			Neck			Head			Nose			RShoulder			RElbow			RWrist			RThumb			RIndex			RPinky			LShoulder			LElbow			LWrist			LThumb			LIndex			LPinky		
		X1	Y1	Z1	X2	Y2	Z2	X3	Y3	Z3	X4	Y4	Z4	X5	Y5	Z5	X6	Y6	Z6	X7	Y7	Z7	X8	Y8	Z8	X9	Y9	Z9	X10	Y10	Z10	X11	Y11	Z11	X12	Y12	Z12	X13	Y13	Z13	X14	Y14	Z14	X15	Y15	Z15	X16	Y16	Z16	X17	Y17	Z17	X18	Y18	Z18	X19	Y19	Z19	X20	Y20	Z20	X21	Y21	Z21	X22	Y22	Z22	X23	Y23	Z23	X24	Y24	Z24	X25	Y25	Z25	X26	Y26	Z26	X27	Y27	Z27
1	0.016666666666666666	436.8018075397416	3697.689868602267	636.3693094972167	843.4556765298856	3764.7771048515992	654.7474162867787	1208.983784512298	3714.5283872475884	654.2524483382284	1290.3235152580626	3642.3940747551846	648.8734348292778	1289.3078169102719	3685.239943851356	603.6449804879898	1290.208600602439	3795.8454256076907	738.9966811650434	454.7272221210859	3631.092985431411	851.624396483924	848.6245378710435	3614.0056276110467	844.4250708316562	1236.486931210372	3673.0027790202644	852.1727102070885	1300.9143734817615	3530.333059555271	792.4317437364101	1283.4580235936455	3537.11763675253	844.5142313925571	1258.2853866756693	3706.481718085698	857.2267771273358	-126.23078397990945	3610.122088713022	737.5147019789683	-391.37466221539745	3555.996850505317	712.8140905787417	-241.77433187156544	3426.3871100095216	675.4078254115217	-49.564561631928754	3643.5632114939153	563.2250953035626	181.5555180226512	3783.5983520692425	517.1457449083069	231.63099533108684	3492.8184689846707	531.2738418205242	224.00310878869644	3406.2785977128206	628.5300005225557	258.2075322704794	3402.2769188667617	647.000346782589	334.90547440859	3429.6101425166776	634.9396510016642	-40.31376444384679	3548.858004798271	890.2701772120502	192.35560286495712	3518.0866001288027	969.6863095802593	262.5919174109511	3386.4837780205166	737.0110785590656	237.51847627426486	3416.0909524093586	655.8941749270015	282.5807161312158	3398.737331386543	621.268797675374	343.84714145131363	3444.3959411305023	654.9271247257935
2	0.03333333333333333	436.67922913554713	3697.8077002971845	636.4099240833234	843.4514214692749	3763.0164713149156	659.7323640202086	1212.1467511503058	3722.536658645888	659.1040422558967	1295.2589198903147	3644.3037157933	650.7713681070143	1289.0645459944353	3685.1117338982153	603.7452196926392	1287.8818388454915	3802.0298859387995	742.0393684482665	454.61497654269573	3631.041975674392	851.5579049401812	848.6263164314482	3614.45948220671	844.4967962659003	1236.4327541000482	3673.1030890027787	852.1503307625007	1308.7302810402418	3551.479174513238	799.4590521056052	1283.9296483678818	3536.2871736279603	849.7674223220951	1258.3642665331138	3706.119534443308	856.99696659106	-126.20981453906955	3610.08122448454	737.4796871186063	-391.2516792092018	3556.033803520538	712.7293610353291	-237.32116847437032	3429.7402275498207	676.835055074407	-53.64962574741637	3664.8947958591284	578.9360417138734	177.02737574400763	3782.075031884179	516.3565990698585	233.5756511446752	3509.5668711989933	538.7749120611683	223.37012534130193	3405.6175935624315	622.5982010532807	254.04279870110943	3406.2180838639283	643.6578140063802	334.53541570981054	3429.163530984584	629.2076379561707	-41.28459446589636	3532.861081594661	875.4882089895522	192.22214047857236	3517.8578522798502	969.5182476032132	260.1076502517295	3401.3624033288083	744.4941013485306	238.53517014966368	3428.654106849608	661.7732201025633	279.3861053155497	3415.41251824733	630.1878610510626	342.7878085138011	3433.228504696142	650.8760905074005
3	0.05	435.5992715355113	3688.9011890880784	632.7134329771483	843.4034219515959	3762.630322476138	659.5050883761538	1213.9563653644639	3737.6138930474776	671.3392496473747	1302.7918065877188	3660.1091903848696	663.6845178497525	1289.3008171303334	3685.983676655374	604.359470701589	1287.944875593559	3802.0126689335984	742.1053465661655	454.6396139760366	3630.9115445791076	851.5232049375592	848.6882700688805	3614.379618881446	844.4582349154587	1233.5406292269852	3678.90292643066	855.4840304897305	1309.0131453515507	3552.06899154427	799.6193239611919	1288.6414571027726	3539.548264464553	846.2934312125257	1263.8165422157824	3708.0262801538897	858.6637422076016	-126.16909141516797	3610.2274168651084	737.5653379674138	-391.40723225611845	3556.330724317347	713.0139010260249	-237.26783749976974	3429.707017994906	676.7870075252337	-53.62219298365451	3665.033882540383	579.0200005277057	177.02411573081892	3782.2100077990444	516.3500699833851	237.91600417757	3511.0815381114644	539.6437707023154	223.36186574746532	3405.502619142698	622.7074944312401	256.0804421677567	3419.036636452393	656.3032342012485	331.29488065262876	3432.731584857781	631.670929743455	-40.48412970287801	3548.5977447999217	890.1146483209455	192.58223041024692	3522.5089599713983	966.5720676675442	255.34877071058463	3397.715704775499	742.9765511209403	240.73606185628995	3441.95446179558	674.1246266361934	273.700420619794	3412.0038551558036	628.9164127428705	348.1432668927283	3455.7249691469337	659.338211102167
4	0.06666666666666667	436.7257062835282	3697.6690179286543	636.4327766255964	843.4193278818772	3762.7242697670104	659.5732152753833	1206.516029673531	3720.6858965491556	657.5520330305716	1290.2680081165804	3642.7263027729186	649.0760882939526	1289.271365890734	3686.013224390709	604.2561109201515	1295.4743842229927	3824.2810114630643	748.3694281486078	454.6134857915334	3631.0696762749585	851.6276227230303	848.7200835515063	3614.4761747381444	844.5564029122038	1233.5475060558542	3678.99821497197	855.6190869173652	1302.4542726522855	3547.8488175313196	798.4022229327243	1288.4066835088506	3539.4221947506308	846.2350205293473	1258.3566013610691	3706.2832663842305	857.1490428651252	-126.1950742789837	3610.2214962854123	737.5663086226488	-391.273123205695	3556.1816316415247	712.8693949616476	-237.8347933074528	3435.057587789389	669.046562062347	-53.73383592094839	3664.9240016365598	578.9569199330241	181.42850762492338	3783.955474186874	517.38292329029	237.92239729021415	3511.2524716112084	539.758521570892	223.45014635896257	3405.6491495247164	622.7235018514375	256.37334887914966	3419.2925942938978	656.2708225323194	331.20329722794975	3433.1547776674706	631.8797444122225	-40.50715366086739	3548.5912142552843	890.1317049949591	192.5584470300784	3522.479771355586	966.5305855674264	264.5705288604176	3403.4876019061894	745.614417978591	242.1540992209418	3430.204434601505	662.6693170538904	279.76189043922085	3416.3812831847204	630.50741480822	348.2337439831478	3455.647807384775	659.1173615750032
